<svg width="27" height="31" viewBox="0 0 27 31" fill="none" xmlns="http://www.w3.org/2000/svg">
<path opacity="0.5" d="M15.4425 28.6057L25.7749 4.04587C26.2102 3.0112 26.0466 1.85223 25.3482 1.0213C24.6497 0.190381 23.5571 -0.145018 22.4968 0.146105L14.1227 2.44516L13.9387 13.0828C13.9302 13.5723 13.5351 13.9751 13.0561 13.9824C12.5771 13.9896 12.1957 13.5987 12.2041 13.1091L12.3882 2.47145L4.08936 0.425169C3.03853 0.166051 1.93372 0.534705 1.20612 1.38731C0.477112 2.24158 0.275587 3.40621 0.674557 4.42646L10.1623 28.6858C10.5942 29.7903 11.5939 30.4653 12.7712 30.4475C13.9485 30.4296 14.9721 29.7239 15.4425 28.6057Z" fill="#0F4FE1"/>
</svg>
