<svg width="365" height="322" viewBox="0 0 365 322" fill="none" xmlns="http://www.w3.org/2000/svg">
<g filter="url(#filter0_dddd_1479_1328)">
<rect x="32" y="8" width="301" height="258" rx="25" fill="white"/>
</g>
<path opacity="0.7" d="M91.114 230.44C91.114 229.502 90.792 228.69 90.148 228.032C89.518 227.374 88.552 227.038 87.278 227.038H83.4V238H85.122V233.94H87.068C88.342 233.94 89.322 233.604 90.036 232.946C90.75 232.274 91.114 231.434 91.114 230.44ZM87.124 228.634C87.936 228.634 88.51 228.816 88.846 229.18C89.196 229.544 89.364 229.978 89.364 230.482C89.364 231.49 88.65 232.358 87.124 232.358H85.122V228.634H87.124ZM96.7646 230.496C96.6666 230.468 96.5406 230.454 96.3586 230.454C95.4486 230.454 94.7626 230.874 94.3006 231.714V230.524H92.6766V238H94.3426V234.206C94.3426 232.904 95.0146 232.162 96.2886 232.162C96.4706 232.162 96.6246 232.176 96.7646 232.204V230.496ZM101.453 230.37C100.361 230.37 99.4227 230.748 98.6527 231.49C97.8827 232.232 97.4907 233.156 97.4907 234.248C97.4907 235.34 97.8687 236.264 98.6387 237.006C99.4087 237.748 100.347 238.126 101.439 238.126C102.545 238.126 103.469 237.748 104.225 237.006C104.995 236.25 105.373 235.326 105.373 234.22C105.373 233.128 104.995 232.218 104.225 231.476C103.455 230.734 102.531 230.37 101.453 230.37ZM99.8147 232.568C100.235 232.106 100.781 231.882 101.439 231.882C102.097 231.882 102.643 232.106 103.049 232.568C103.469 233.03 103.679 233.59 103.679 234.248C103.679 234.906 103.469 235.466 103.063 235.928C102.657 236.39 102.111 236.614 101.453 236.614C100.795 236.614 100.249 236.376 99.8287 235.914C99.4087 235.438 99.1987 234.878 99.1987 234.22C99.1987 233.562 99.4087 233.016 99.8147 232.568ZM106.596 234.248C106.596 235.284 106.946 236.194 107.646 236.964C108.346 237.734 109.228 238.112 110.278 238.112C110.67 238.112 111.118 238.014 111.622 237.804C112.14 237.594 112.518 237.272 112.784 236.838V238H114.408V226.604H112.742V231.588C112.49 231.182 112.126 230.888 111.636 230.692C111.16 230.482 110.726 230.384 110.32 230.384C109.214 230.384 108.304 230.776 107.618 231.56C106.932 232.344 106.596 233.24 106.596 234.248ZM110.53 231.882C111.188 231.882 111.72 232.106 112.14 232.568C112.56 233.03 112.77 233.59 112.77 234.248C112.77 234.906 112.56 235.466 112.14 235.928C111.734 236.376 111.188 236.6 110.53 236.6C109.872 236.6 109.326 236.376 108.906 235.928C108.5 235.466 108.29 234.906 108.29 234.248C108.29 233.59 108.5 233.03 108.906 232.568C109.326 232.106 109.872 231.882 110.53 231.882ZM116.559 230.524V235.116C116.559 236.908 117.553 238.154 119.359 238.154C120.311 238.154 121.067 237.762 121.641 236.992V238H123.265V230.524H121.599V234.682C121.599 235.816 120.927 236.572 119.877 236.572C118.771 236.572 118.225 235.83 118.225 234.71V230.524H116.559ZM128.891 238.126C129.801 238.126 130.543 237.902 131.117 237.454C131.691 237.006 132.097 236.474 132.307 235.872L130.851 235.228C130.501 236.152 129.857 236.614 128.919 236.614C128.289 236.614 127.757 236.39 127.337 235.942C126.917 235.494 126.707 234.92 126.707 234.22C126.707 233.534 126.917 232.974 127.337 232.54C127.771 232.106 128.289 231.882 128.905 231.882C129.857 231.882 130.501 232.344 130.823 233.254L132.251 232.61C131.803 231.28 130.571 230.37 128.891 230.37C127.785 230.37 126.861 230.748 126.119 231.518C125.377 232.288 124.999 233.198 124.999 234.248C124.999 235.354 125.377 236.278 126.119 237.02C126.861 237.762 127.785 238.126 128.891 238.126ZM137.985 232.022V230.524H136.151V228.214H134.485V230.524H133.113V232.022H134.485V235.592C134.485 237.216 135.437 238.084 137.075 238.084C137.397 238.084 137.705 238.028 137.971 237.93V236.516C137.789 236.558 137.607 236.572 137.439 236.572C136.585 236.572 136.151 236.222 136.151 235.326V232.022H137.985ZM145.429 236.404V227.038H143.707V238H150.371V236.404H145.429ZM155.982 232.932C155.982 233.352 155.744 233.562 155.282 233.562H154.358C153.042 233.562 151.25 234.108 151.25 235.844V235.928C151.25 236.572 151.488 237.104 151.964 237.51C152.44 237.916 153.042 238.126 153.77 238.126C154.778 238.126 155.506 237.748 155.968 236.978V238H157.606V233.24C157.606 232.722 157.522 232.274 157.354 231.896C156.892 230.874 155.954 230.37 154.554 230.37C153.028 230.37 151.964 231 151.376 232.274L152.65 233.002C153.028 232.204 153.658 231.812 154.512 231.812C155.45 231.812 155.982 232.316 155.982 232.932ZM155.968 234.976C155.968 236.096 155.24 236.796 154.106 236.796C153.392 236.796 152.916 236.39 152.916 235.774C152.916 235.452 153.07 235.2 153.364 235.018C153.672 234.836 154.008 234.738 154.358 234.738H155.968V234.976ZM159.681 230.524V235.116C159.681 236.908 160.675 238.154 162.481 238.154C163.433 238.154 164.189 237.762 164.763 236.992V238H166.387V230.524H164.721V234.682C164.721 235.816 164.049 236.572 162.999 236.572C161.893 236.572 161.347 235.83 161.347 234.71V230.524H159.681ZM175.33 238V233.394C175.33 231.602 174.364 230.37 172.53 230.37C171.578 230.37 170.822 230.762 170.248 231.532V230.524H168.624V238H170.29V233.842C170.29 232.708 170.962 231.952 172.012 231.952C173.118 231.952 173.664 232.694 173.664 233.814V238H175.33ZM180.871 238.126C181.781 238.126 182.523 237.902 183.097 237.454C183.671 237.006 184.077 236.474 184.287 235.872L182.831 235.228C182.481 236.152 181.837 236.614 180.899 236.614C180.269 236.614 179.737 236.39 179.317 235.942C178.897 235.494 178.687 234.92 178.687 234.22C178.687 233.534 178.897 232.974 179.317 232.54C179.751 232.106 180.269 231.882 180.885 231.882C181.837 231.882 182.481 232.344 182.803 233.254L184.231 232.61C183.783 231.28 182.551 230.37 180.871 230.37C179.765 230.37 178.841 230.748 178.099 231.518C177.357 232.288 176.979 233.198 176.979 234.248C176.979 235.354 177.357 236.278 178.099 237.02C178.841 237.762 179.765 238.126 180.871 238.126ZM192.597 238V233.394C192.597 231.602 191.631 230.37 189.797 230.37C188.887 230.37 188.131 230.734 187.557 231.476V226.604H185.891V238H187.557V233.842C187.557 232.708 188.229 231.952 189.279 231.952C190.385 231.952 190.931 232.694 190.931 233.814V238H192.597ZM201.625 234.752C201.639 234.626 201.653 234.458 201.653 234.234C201.653 233.072 201.331 232.148 200.687 231.434C200.043 230.72 199.147 230.37 198.013 230.37C196.935 230.37 196.039 230.748 195.325 231.504C194.611 232.26 194.247 233.17 194.247 234.248C194.247 235.354 194.625 236.292 195.367 237.034C196.123 237.776 197.061 238.14 198.167 238.14C199.511 238.14 200.729 237.496 201.359 236.334L200.155 235.536C199.749 236.306 199.077 236.698 198.139 236.698C197.565 236.698 197.061 236.516 196.627 236.152C196.193 235.774 195.969 235.312 195.955 234.752H201.625ZM198.013 231.798C199.077 231.798 199.903 232.442 199.959 233.492H196.039C196.193 232.47 196.991 231.798 198.013 231.798ZM202.846 234.248C202.846 235.284 203.196 236.194 203.896 236.964C204.596 237.734 205.478 238.112 206.528 238.112C206.92 238.112 207.368 238.014 207.872 237.804C208.39 237.594 208.768 237.272 209.034 236.838V238H210.658V226.604H208.992V231.588C208.74 231.182 208.376 230.888 207.886 230.692C207.41 230.482 206.976 230.384 206.57 230.384C205.464 230.384 204.554 230.776 203.868 231.56C203.182 232.344 202.846 233.24 202.846 234.248ZM206.78 231.882C207.438 231.882 207.97 232.106 208.39 232.568C208.81 233.03 209.02 233.59 209.02 234.248C209.02 234.906 208.81 235.466 208.39 235.928C207.984 236.376 207.438 236.6 206.78 236.6C206.122 236.6 205.576 236.376 205.156 235.928C204.75 235.466 204.54 234.906 204.54 234.248C204.54 233.59 204.75 233.03 205.156 232.568C205.576 232.106 206.122 231.882 206.78 231.882Z" fill="#0F4FE1"/>
<line opacity="0.05" x1="32" y1="204.5" x2="333" y2="204.5" stroke="black"/>
<circle cx="66" cy="232" r="10" fill="#E0EAFF"/>
<path d="M66.0388 226.39L68.7603 231.855L66.0388 233.397L63.3174 231.855L66.0388 226.39Z" fill="#0F4FE1"/>
<path d="M66.0388 237.881L68.7603 232.416L66.0388 234.377L63.3174 232.416L66.0388 237.881Z" fill="#0F4FE1"/>
<g clip-path="url(#clip0_1479_1328)">
<path d="M221.351 74.6422C220.869 74.1602 220.17 73.9269 219.501 74.0202L194.916 77.4879C194.45 77.5501 194.014 77.7678 193.672 78.1099L176.769 95.013H145.202C144.316 95.013 143.507 95.5417 143.18 96.3659C142.838 97.1901 143.025 98.1231 143.663 98.7606L158.342 113.44L156.989 114.793C156.585 115.197 155.512 116.41 156.989 117.887L178.106 138.989C179.459 140.342 180.796 139.393 181.216 138.989L182.569 137.636L197.249 152.316C198.119 153.186 198.944 153.078 199.643 152.798C200.452 152.456 200.981 151.647 200.981 150.761V119.209L217.884 102.306C218.226 101.964 218.444 101.529 218.506 101.062L221.973 76.4927C222.067 75.8085 221.834 75.1243 221.351 74.6422ZM150.505 99.3982H172.384L161.436 110.33L150.505 99.3982ZM196.596 145.474L185.664 134.542L196.596 123.61V145.474ZM214.276 99.7403L179.646 134.34L161.639 116.332L196.253 81.7331L217.231 78.7786L214.276 99.7403Z" fill="#0F4FE1"/>
<path d="M154.626 127.078C153.771 126.222 152.387 126.222 151.516 127.078L143.647 134.946C142.792 135.801 142.792 137.185 143.647 138.041C144.394 138.787 145.887 138.911 146.757 138.041L154.641 130.172C155.497 129.333 155.497 127.933 154.626 127.078Z" fill="#0F4FE1"/>
<path d="M165.589 130.39C164.733 129.534 163.349 129.534 162.479 130.39L154.595 138.258C153.739 139.113 153.739 140.497 154.595 141.353C155.341 142.099 156.834 142.223 157.705 141.353L165.589 133.484C166.444 132.629 166.444 131.245 165.589 130.39Z" fill="#0F4FE1"/>
<path d="M168.901 141.337C168.046 140.482 166.662 140.482 165.791 141.337L157.907 149.206C157.052 150.061 157.052 151.445 157.907 152.3C158.653 153.047 160.146 153.171 161.017 152.3L168.901 144.432C169.756 143.592 169.756 142.193 168.901 141.337Z" fill="#0F4FE1"/>
<path d="M189.179 99.1494C184.949 99.1494 181.497 102.586 181.497 106.831C181.497 111.061 184.949 114.513 189.179 114.513C193.409 114.513 196.861 111.076 196.861 106.831C196.861 102.586 193.409 99.1494 189.179 99.1494ZM189.163 110.112C187.344 110.112 185.867 108.635 185.867 106.816C185.867 104.996 187.344 103.519 189.163 103.519C190.983 103.535 192.46 105.012 192.46 106.816C192.46 108.635 190.983 110.112 189.163 110.112Z" fill="#0F4FE1"/>
</g>
<defs>
<filter id="filter0_dddd_1479_1328" x="0" y="0" width="365" height="322" filterUnits="userSpaceOnUse" color-interpolation-filters="sRGB">
<feFlood flood-opacity="0" result="BackgroundImageFix"/>
<feColorMatrix in="SourceAlpha" type="matrix" values="0 0 0 0 0 0 0 0 0 0 0 0 0 0 0 0 0 0 127 0" result="hardAlpha"/>
<feOffset/>
<feGaussianBlur stdDeviation="0.5"/>
<feColorMatrix type="matrix" values="0 0 0 0 0 0 0 0 0 0 0 0 0 0 0 0 0 0 0.04 0"/>
<feBlend mode="normal" in2="BackgroundImageFix" result="effect1_dropShadow_1479_1328"/>
<feColorMatrix in="SourceAlpha" type="matrix" values="0 0 0 0 0 0 0 0 0 0 0 0 0 0 0 0 0 0 127 0" result="hardAlpha"/>
<feOffset dy="4"/>
<feGaussianBlur stdDeviation="4"/>
<feColorMatrix type="matrix" values="0 0 0 0 0 0 0 0 0 0 0 0 0 0 0 0 0 0 0.04 0"/>
<feBlend mode="normal" in2="effect1_dropShadow_1479_1328" result="effect2_dropShadow_1479_1328"/>
<feColorMatrix in="SourceAlpha" type="matrix" values="0 0 0 0 0 0 0 0 0 0 0 0 0 0 0 0 0 0 127 0" result="hardAlpha"/>
<feOffset dy="16"/>
<feGaussianBlur stdDeviation="12"/>
<feColorMatrix type="matrix" values="0 0 0 0 0 0 0 0 0 0 0 0 0 0 0 0 0 0 0.04 0"/>
<feBlend mode="normal" in2="effect2_dropShadow_1479_1328" result="effect3_dropShadow_1479_1328"/>
<feColorMatrix in="SourceAlpha" type="matrix" values="0 0 0 0 0 0 0 0 0 0 0 0 0 0 0 0 0 0 127 0" result="hardAlpha"/>
<feOffset dy="24"/>
<feGaussianBlur stdDeviation="16"/>
<feColorMatrix type="matrix" values="0 0 0 0 0 0 0 0 0 0 0 0 0 0 0 0 0 0 0.04 0"/>
<feBlend mode="normal" in2="effect3_dropShadow_1479_1328" result="effect4_dropShadow_1479_1328"/>
<feBlend mode="normal" in="SourceGraphic" in2="effect4_dropShadow_1479_1328" result="shape"/>
</filter>
<clipPath id="clip0_1479_1328">
<rect width="79" height="79" fill="white" transform="translate(143 74)"/>
</clipPath>
</defs>
</svg>
