<svg width="380" height="238" viewBox="0 0 380 238" fill="none" xmlns="http://www.w3.org/2000/svg">
<g filter="url(#filter0_dddd_1479_1285)">
<rect x="32" y="8" width="301" height="162" rx="25" fill="white"/>
</g>
<path d="M67.916 40.424C67.916 38.984 67.448 37.868 66.494 37.094C65.558 36.302 64.352 35.906 62.876 35.906H57.638V50H60.554V45.032H62.768C64.316 45.032 65.558 44.636 66.494 43.862C67.448 43.07 67.916 41.918 67.916 40.424ZM64.982 40.496C64.982 41.72 63.938 42.314 62.642 42.314H60.554V38.66H62.624C63.974 38.66 64.982 39.218 64.982 40.496ZM75.8429 40.352C75.6989 40.298 75.5189 40.28 75.2849 40.28C74.0069 40.28 72.9809 40.982 72.5669 41.864H72.5489V40.388H69.7589V50H72.5669V45.932C72.5669 44.204 73.3589 43.07 75.1769 43.07C75.4109 43.07 75.6269 43.088 75.8429 43.124V40.352ZM78.7914 35.294C77.8554 35.294 77.0634 36.086 77.0634 37.04C77.0634 37.994 77.8554 38.768 78.7914 38.768C79.7814 38.768 80.5554 37.994 80.5554 37.04C80.5554 36.05 79.7814 35.294 78.7914 35.294ZM80.2314 50V40.388H77.4054V50H80.2314ZM93.4214 42.8C94.4654 42.8 94.9874 43.412 94.9874 44.636V50H97.7954V44.006C97.7954 41.684 96.6614 40.172 94.4114 40.172C93.0614 40.172 92.1614 40.64 91.2254 41.702C90.6854 40.676 89.7494 40.172 88.4174 40.172C87.2654 40.172 86.1314 40.712 85.6094 41.648H85.5734V40.388H82.8194V50H85.6274V44.672C85.6274 43.538 86.2034 42.8 87.3374 42.8C88.3814 42.8 88.9034 43.43 88.9034 44.672V50H91.6934V44.636C91.6934 43.502 92.3234 42.8 93.4214 42.8ZM109.544 45.968C109.562 45.752 109.58 45.41 109.58 44.96C109.58 43.538 109.13 42.368 108.248 41.486C107.366 40.604 106.214 40.154 104.792 40.154C103.406 40.154 102.2 40.64 101.192 41.63C100.202 42.62 99.6981 43.79 99.6981 45.176C99.6981 46.652 100.202 47.858 101.21 48.812C102.236 49.748 103.478 50.216 104.972 50.216C106.934 50.216 108.302 49.496 109.112 48.038L107.078 46.706C106.646 47.408 105.782 47.858 104.936 47.858C103.73 47.858 102.722 47.138 102.56 45.968H109.544ZM102.632 44.114C102.686 43.736 102.902 43.358 103.28 42.998C103.658 42.62 104.144 42.44 104.72 42.44C105.998 42.44 106.7 43.268 106.772 44.114H102.632ZM122.061 50L125.139 39.776H125.175L128.235 50H131.385L135.561 35.906H132.555L129.783 45.986L126.741 35.906H123.627L120.585 45.914L117.903 35.906H114.789L118.929 50H122.061ZM139.027 50.18C140.305 50.18 141.259 49.712 141.907 48.794L141.943 48.812V50H144.535V44.042C144.535 41.522 142.897 40.172 140.359 40.172C138.253 40.172 136.777 40.928 135.949 42.458L138.091 43.736C138.577 42.872 139.279 42.44 140.233 42.44C141.241 42.44 141.781 42.962 141.781 43.628C141.781 44.096 141.529 44.33 141.025 44.33H140.071C138.991 44.33 138.091 44.492 137.209 44.906C136.345 45.32 135.787 46.148 135.787 47.282V47.318C135.787 48.182 136.093 48.884 136.723 49.406C137.353 49.928 138.127 50.18 139.027 50.18ZM139.837 48.128C139.117 48.128 138.613 47.804 138.613 47.156C138.613 46.436 139.261 46.058 140.071 46.058H141.763V46.274C141.763 47.336 141.043 48.128 139.837 48.128ZM149.858 35.33H147.032V50H149.858V35.33ZM155.272 35.33H152.446V50H155.272V35.33ZM167.112 45.968C167.13 45.752 167.148 45.41 167.148 44.96C167.148 43.538 166.698 42.368 165.816 41.486C164.934 40.604 163.782 40.154 162.36 40.154C160.974 40.154 159.768 40.64 158.76 41.63C157.77 42.62 157.266 43.79 157.266 45.176C157.266 46.652 157.77 47.858 158.778 48.812C159.804 49.748 161.046 50.216 162.54 50.216C164.502 50.216 165.87 49.496 166.68 48.038L164.646 46.706C164.214 47.408 163.35 47.858 162.504 47.858C161.298 47.858 160.29 47.138 160.128 45.968H167.112ZM160.2 44.114C160.254 43.736 160.47 43.358 160.848 42.998C161.226 42.62 161.712 42.44 162.288 42.44C163.566 42.44 164.268 43.268 164.34 44.114H160.2ZM174.875 47.624C174.677 47.678 174.461 47.696 174.227 47.696C173.129 47.696 172.553 47.264 172.553 46.166V42.818H174.929V40.388H172.553V37.382H169.781V40.388H168.017V42.818H169.745V46.508C169.745 48.758 171.059 50.126 173.561 50.126C174.029 50.126 174.461 50.072 174.875 49.946V47.624Z" fill="black"/>
<path opacity="0.57" d="M62.992 83H64.272V79.992H66.368V78.856H64.272V70.472H62.624L56.48 78.552V79.992H62.992V83ZM62.992 78.856H57.648L62.992 71.832V78.856ZM73.9946 83.128C75.4186 83.128 76.6346 82.76 77.6106 82.008C78.6026 81.256 79.2906 80.344 79.6586 79.272L78.4746 78.712C77.7546 80.68 76.2666 81.88 74.0426 81.88C72.6186 81.88 71.4506 81.384 70.5226 80.408C69.5946 79.432 69.1306 78.184 69.1306 76.696C69.1306 75.208 69.6106 73.992 70.5546 73.032C71.5146 72.072 72.6666 71.592 74.0266 71.592C75.2266 71.592 76.1866 71.896 76.9066 72.504C77.6426 73.096 78.1546 73.848 78.4586 74.728L79.6426 74.184C79.3066 73.128 78.6506 72.232 77.6746 71.48C76.6986 70.728 75.4986 70.344 74.0586 70.344C72.3146 70.344 70.8266 70.952 69.5946 72.168C68.3626 73.368 67.7546 74.904 67.7546 76.776C67.7546 78.632 68.3466 80.152 69.5466 81.352C70.7466 82.536 72.2346 83.128 73.9946 83.128ZM87.3533 80.568C87.3533 80.04 87.1453 79.56 86.7453 79.16C86.2813 78.68 85.5293 78.328 84.5052 78.104C82.9213 77.768 82.5053 77.464 82.5053 76.76C82.5053 76.392 82.6813 76.088 83.0173 75.816C83.3533 75.544 83.7693 75.416 84.2333 75.416C85.1133 75.416 85.7853 75.896 86.2333 76.856L87.2573 76.296C86.6813 74.968 85.6733 74.312 84.2333 74.312C83.4653 74.312 82.7773 74.552 82.1693 75.032C81.5613 75.512 81.2573 76.12 81.2573 76.856C81.2573 77.352 81.4173 77.768 81.7213 78.136C82.1853 78.664 82.7773 78.936 83.9453 79.192C85.4973 79.56 86.0893 79.928 86.0893 80.648C86.0893 81.496 85.2413 82.04 84.2653 82.04C83.2573 82.04 82.4893 81.48 81.9613 80.376L80.9373 80.936C81.5933 82.408 82.7133 83.144 84.2812 83.144C85.1613 83.144 85.8973 82.904 86.4733 82.424C87.0653 81.928 87.3533 81.32 87.3533 80.568ZM90.9399 79.8H97.7719L99.1319 83H100.524L95.1159 70.472H93.6279L88.2199 83H89.5639L90.9399 79.8ZM91.4359 78.6L94.3479 71.832L97.2599 78.6H91.4359ZM101.506 79.576C101.506 80.696 101.938 81.576 102.818 82.2C103.698 82.824 104.738 83.128 105.906 83.128C107.074 83.128 108.098 82.808 108.978 82.168C109.858 81.528 110.306 80.664 110.306 79.576C110.306 78.216 109.362 77.032 107.682 76.536C108.402 76.328 108.978 75.944 109.394 75.416C109.81 74.872 110.018 74.296 110.018 73.672C110.018 72.264 109.026 71.16 107.81 70.696C107.202 70.456 106.562 70.344 105.906 70.344C104.882 70.344 103.938 70.648 103.09 71.256C102.242 71.848 101.81 72.664 101.81 73.672C101.81 74.264 102.018 74.824 102.418 75.384C102.834 75.944 103.41 76.328 104.13 76.536C102.466 77.064 101.506 78.232 101.506 79.576ZM105.906 71.528C106.594 71.528 107.234 71.736 107.826 72.136C108.418 72.536 108.722 73.064 108.722 73.736C108.722 74.44 108.418 75 107.794 75.416C107.17 75.816 106.546 76.024 105.906 76.024C105.266 76.024 104.642 75.816 104.018 75.416C103.41 75 103.106 74.44 103.106 73.72C103.106 73.048 103.41 72.52 104.002 72.12C104.594 71.72 105.234 71.528 105.906 71.528ZM105.906 81.944C105.122 81.944 104.402 81.736 103.778 81.336C103.154 80.92 102.834 80.328 102.834 79.544C102.834 78.792 103.154 78.216 103.794 77.784C104.45 77.352 105.154 77.144 105.906 77.144C106.674 77.144 107.378 77.368 108.018 77.8C108.658 78.232 108.978 78.824 108.978 79.576C108.978 80.328 108.658 80.92 108.002 81.336C107.362 81.736 106.658 81.944 105.906 81.944ZM115.794 81.88C114.818 81.88 113.89 81.464 113.01 80.616L112.306 81.656C113.314 82.632 114.482 83.128 115.81 83.128C119.458 83.128 121.09 79.864 121.09 76.28C121.09 75.32 121.042 74.568 120.93 74.008C120.818 73.448 120.626 72.92 120.322 72.392C119.57 71.096 118.05 70.344 116.498 70.344C115.282 70.344 114.242 70.728 113.394 71.48C112.546 72.232 112.114 73.256 112.114 74.536C112.114 75.704 112.498 76.68 113.25 77.448C114.002 78.2 115.026 78.584 116.322 78.584C116.946 78.584 117.57 78.44 118.226 78.152C118.882 77.848 119.394 77.4 119.778 76.776C119.746 78.264 119.394 79.48 118.722 80.44C118.066 81.4 117.09 81.88 115.794 81.88ZM116.514 77.432C115.57 77.432 114.802 77.16 114.242 76.6C113.682 76.04 113.41 75.336 113.41 74.472C113.41 73.576 113.714 72.872 114.306 72.344C114.914 71.816 115.65 71.56 116.514 71.56C117.33 71.56 118.05 71.832 118.674 72.376C119.298 72.92 119.618 73.64 119.618 74.536C119.618 75.352 119.314 76.04 118.722 76.6C118.13 77.16 117.394 77.432 116.514 77.432ZM129.119 80.568C129.119 80.04 128.911 79.56 128.511 79.16C128.047 78.68 127.295 78.328 126.271 78.104C124.687 77.768 124.271 77.464 124.271 76.76C124.271 76.392 124.447 76.088 124.783 75.816C125.119 75.544 125.535 75.416 125.999 75.416C126.879 75.416 127.551 75.896 127.999 76.856L129.023 76.296C128.447 74.968 127.439 74.312 125.999 74.312C125.231 74.312 124.543 74.552 123.935 75.032C123.327 75.512 123.023 76.12 123.023 76.856C123.023 77.352 123.183 77.768 123.487 78.136C123.951 78.664 124.543 78.936 125.711 79.192C127.263 79.56 127.855 79.928 127.855 80.648C127.855 81.496 127.007 82.04 126.031 82.04C125.023 82.04 124.255 81.48 123.727 80.376L122.703 80.936C123.359 82.408 124.479 83.144 126.047 83.144C126.927 83.144 127.663 82.904 128.239 82.424C128.831 81.928 129.119 81.32 129.119 80.568ZM130.738 78.712C130.738 79.928 131.106 80.968 131.842 81.832C132.594 82.696 133.554 83.128 134.738 83.128C136.162 83.128 137.282 82.472 138.066 81.176V83H139.282V69.976H138.05V76.248C137.17 74.952 136.066 74.312 134.738 74.312C133.57 74.312 132.61 74.76 131.858 75.64C131.106 76.52 130.738 77.544 130.738 78.712ZM134.994 82.024C134.082 82.024 133.362 81.704 132.818 81.08C132.274 80.44 132.002 79.656 132.002 78.744C132.002 77.8 132.274 77 132.818 76.376C133.362 75.736 134.082 75.416 134.994 75.416C135.858 75.416 136.578 75.752 137.17 76.408C137.762 77.064 138.066 77.816 138.066 78.696C138.066 79.608 137.778 80.392 137.186 81.048C136.61 81.704 135.874 82.024 134.994 82.024ZM145.359 71.032C145.727 71.032 146.031 71.064 146.255 71.144V70.088C145.935 69.976 145.615 69.928 145.311 69.928C143.727 69.928 142.687 70.952 142.687 72.872V74.456H141.103V75.544H142.687V83H143.935V75.544H146.175V74.456H143.935V72.84C143.935 71.512 144.591 71.032 145.359 71.032ZM153.447 80.568C153.447 80.04 153.239 79.56 152.839 79.16C152.375 78.68 151.623 78.328 150.599 78.104C149.015 77.768 148.599 77.464 148.599 76.76C148.599 76.392 148.775 76.088 149.111 75.816C149.447 75.544 149.863 75.416 150.327 75.416C151.207 75.416 151.879 75.896 152.327 76.856L153.351 76.296C152.775 74.968 151.767 74.312 150.327 74.312C149.559 74.312 148.871 74.552 148.263 75.032C147.655 75.512 147.351 76.12 147.351 76.856C147.351 77.352 147.511 77.768 147.815 78.136C148.279 78.664 148.871 78.936 150.039 79.192C151.591 79.56 152.183 79.928 152.183 80.648C152.183 81.496 151.335 82.04 150.359 82.04C149.351 82.04 148.583 81.48 148.055 80.376L147.031 80.936C147.687 82.408 148.807 83.144 150.375 83.144C151.255 83.144 151.991 82.904 152.567 82.424C153.159 81.928 153.447 81.32 153.447 80.568ZM157.034 79.8H163.866L165.226 83H166.618L161.21 70.472H159.722L154.314 83H155.658L157.034 79.8ZM157.53 78.6L160.442 71.832L163.354 78.6H157.53ZM169.728 83V78.104H172.384C173.84 78.104 174.976 77.736 175.792 77.016C176.608 76.28 177.008 75.352 177.008 74.232C177.008 73.176 176.64 72.28 175.888 71.56C175.136 70.84 174.048 70.472 172.608 70.472H168.416V83H169.728ZM169.728 71.704H172.496C173.632 71.704 174.432 71.96 174.928 72.456C175.424 72.952 175.664 73.56 175.664 74.28C175.664 74.984 175.392 75.592 174.848 76.12C174.304 76.632 173.504 76.888 172.432 76.888H169.728V71.704ZM191.019 76.696C191.019 74.904 190.411 73.4 189.211 72.184C188.011 70.952 186.523 70.344 184.747 70.344C182.939 70.344 181.435 70.968 180.235 72.2C179.035 73.432 178.427 74.968 178.427 76.776C178.427 78.568 179.019 80.072 180.219 81.304C181.419 82.52 182.923 83.128 184.699 83.128C186.507 83.128 188.011 82.504 189.211 81.272C190.411 80.04 191.019 78.504 191.019 76.696ZM189.659 76.776C189.659 78.2 189.195 79.4 188.267 80.408C187.339 81.4 186.171 81.896 184.747 81.896C183.323 81.896 182.139 81.384 181.195 80.376C180.251 79.368 179.787 78.136 179.787 76.696C179.787 75.272 180.251 74.072 181.179 73.08C182.107 72.072 183.275 71.576 184.699 71.576C186.123 71.576 187.307 72.088 188.251 73.096C189.195 74.104 189.659 75.336 189.659 76.776ZM199.379 83V81.928H194.035L199.363 75.512V74.456H192.659V75.528H197.875L192.547 81.928V83H199.379ZM202.334 80.84C201.694 80.84 201.182 81.352 201.182 81.992C201.182 82.632 201.694 83.144 202.334 83.144C202.958 83.144 203.47 82.632 203.47 81.992C203.47 81.352 202.958 80.84 202.334 80.84ZM206.803 80.84C206.163 80.84 205.651 81.352 205.651 81.992C205.651 82.632 206.163 83.144 206.803 83.144C207.427 83.144 207.939 82.632 207.939 81.992C207.939 81.352 207.427 80.84 206.803 80.84ZM218.359 79.544C218.359 78.088 217.479 77 216.071 76.552V76.536C217.399 75.928 218.071 74.968 218.071 73.656C218.071 72.776 217.719 71.992 216.999 71.336C216.279 70.664 215.303 70.328 214.039 70.328C212.007 70.328 210.519 71.48 209.943 73.208L211.127 73.736C211.719 72.28 212.679 71.56 214.007 71.56C214.855 71.56 215.527 71.784 216.007 72.216C216.487 72.648 216.727 73.176 216.727 73.768C216.727 74.392 216.471 74.936 215.975 75.368C215.479 75.8 214.823 76.024 213.991 76.024H212.775V77.24H214.023C215.959 77.24 217.015 78.216 217.015 79.56C217.015 80.184 216.759 80.744 216.231 81.208C215.703 81.672 214.983 81.896 214.039 81.896C212.583 81.896 211.559 81.16 210.967 79.672L209.815 80.248C210.455 82.04 211.943 83.128 214.039 83.128C215.303 83.128 216.343 82.792 217.143 82.104C217.959 81.416 218.359 80.552 218.359 79.544ZM227.968 71.704V70.472H221.36L220.4 77.08L221.616 77.576C222.256 76.792 223.312 76.296 224.224 76.296C226.032 76.296 227.232 77.384 227.232 79.048C227.232 79.928 226.944 80.616 226.368 81.128C225.808 81.64 225.088 81.896 224.224 81.896C222.816 81.896 221.808 81.16 221.2 79.688L220.064 80.296C220.72 82.072 222.224 83.128 224.192 83.128C225.44 83.128 226.48 82.76 227.312 82.008C228.16 81.256 228.576 80.264 228.576 79.016C228.576 77.816 228.192 76.872 227.44 76.184C226.688 75.48 225.696 75.128 224.464 75.128C223.488 75.128 222.32 75.512 221.744 76.152L222.4 71.704H227.968ZM229.774 74.456L233.406 83H234.734L238.382 74.456H237.054L234.078 81.624L231.15 74.456H229.774Z" fill="black"/>
<path opacity="0.7" d="M85.122 140.404V131.038H83.4V142H90.064V140.404H85.122ZM91.4612 132.872C91.8952 133.306 92.5672 133.306 93.0012 132.872C93.4352 132.438 93.4352 131.766 93.0012 131.332C92.5672 130.884 91.8952 130.884 91.4612 131.332C91.0272 131.766 91.0272 132.438 91.4612 132.872ZM93.0712 134.524H91.4052V142H93.0712V134.524ZM102.008 142V137.394C102.008 135.602 101.042 134.37 99.2076 134.37C98.2556 134.37 97.4996 134.762 96.9256 135.532V134.524H95.3016V142H96.9676V137.842C96.9676 136.708 97.6396 135.952 98.6896 135.952C99.7956 135.952 100.342 136.694 100.342 137.814V142H102.008ZM104.161 142H105.827V138.346H105.869L108.991 142H111.189L107.633 137.912L111.007 134.524H108.739L105.841 137.464H105.827V130.604H104.161V142ZM118.746 138.752C118.76 138.626 118.774 138.458 118.774 138.234C118.774 137.072 118.452 136.148 117.808 135.434C117.164 134.72 116.268 134.37 115.134 134.37C114.056 134.37 113.16 134.748 112.446 135.504C111.732 136.26 111.368 137.17 111.368 138.248C111.368 139.354 111.746 140.292 112.488 141.034C113.244 141.776 114.182 142.14 115.288 142.14C116.632 142.14 117.85 141.496 118.48 140.334L117.276 139.536C116.87 140.306 116.198 140.698 115.26 140.698C114.686 140.698 114.182 140.516 113.748 140.152C113.314 139.774 113.09 139.312 113.076 138.752H118.746ZM115.134 135.798C116.198 135.798 117.024 136.442 117.08 137.492H113.16C113.314 136.47 114.112 135.798 115.134 135.798ZM119.967 138.248C119.967 139.284 120.317 140.194 121.017 140.964C121.717 141.734 122.599 142.112 123.649 142.112C124.041 142.112 124.489 142.014 124.993 141.804C125.511 141.594 125.889 141.272 126.155 140.838V142H127.779V130.604H126.113V135.588C125.861 135.182 125.497 134.888 125.007 134.692C124.531 134.482 124.097 134.384 123.691 134.384C122.585 134.384 121.675 134.776 120.989 135.56C120.303 136.344 119.967 137.24 119.967 138.248ZM123.901 135.882C124.559 135.882 125.091 136.106 125.511 136.568C125.931 137.03 126.141 137.59 126.141 138.248C126.141 138.906 125.931 139.466 125.511 139.928C125.105 140.376 124.559 140.6 123.901 140.6C123.243 140.6 122.697 140.376 122.277 139.928C121.871 139.466 121.661 138.906 121.661 138.248C121.661 137.59 121.871 137.03 122.277 136.568C122.697 136.106 123.243 135.882 123.901 135.882Z" fill="#0F4FE1"/>
<line opacity="0.05" x1="32" y1="108.5" x2="333" y2="108.5" stroke="black"/>
<circle cx="66" cy="136" r="10" fill="#E0EAFF"/>
<path d="M66.0388 130.39L68.7603 135.855L66.0388 137.397L63.3174 135.855L66.0388 130.39Z" fill="#0F4FE1"/>
<path d="M66.0388 141.881L68.7603 136.416L66.0388 138.377L63.3174 136.416L66.0388 141.881Z" fill="#0F4FE1"/>
<g filter="url(#filter1_dddd_1479_1285)">
<circle cx="310" cy="152" r="46" fill="white"/>
</g>
<path d="M296.281 136.652C296.046 136.649 295.818 136.573 295.628 136.435C295.438 136.296 295.296 136.102 295.222 135.879C295.148 135.656 295.145 135.416 295.213 135.191C295.282 134.967 295.419 134.769 295.605 134.626C299.658 131.758 304.538 130.298 309.499 130.469C313.406 130.469 319.017 131.13 323.452 134.317C323.695 134.491 323.859 134.754 323.908 135.048C323.958 135.343 323.889 135.645 323.717 135.889C323.538 136.13 323.271 136.291 322.975 136.338C322.678 136.385 322.375 136.313 322.131 136.138C318.364 133.745 313.959 132.551 309.499 132.716C305.047 132.565 300.666 133.864 297.015 136.417C296.807 136.583 296.546 136.666 296.281 136.652Z" fill="#0F4FE1"/>
<path d="M327.463 147.007C327.281 147.005 327.102 146.96 326.942 146.876C326.781 146.792 326.642 146.67 326.537 146.522C323.996 142.938 319.458 138.165 309.5 138.165C306.189 138.082 302.907 138.799 299.933 140.257C296.959 141.714 294.381 143.869 292.418 146.537C292.242 146.777 291.978 146.938 291.684 146.985C291.39 147.032 291.089 146.96 290.847 146.786C290.72 146.698 290.613 146.584 290.532 146.452C290.451 146.32 290.399 146.173 290.378 146.02C290.358 145.866 290.369 145.711 290.412 145.562C290.454 145.413 290.528 145.275 290.626 145.156C292.802 142.217 295.652 139.844 298.937 138.236C302.221 136.628 305.844 135.833 309.5 135.918C317.74 135.918 323.908 138.973 328.359 145.23C328.529 145.475 328.596 145.778 328.544 146.073C328.491 146.368 328.325 146.629 328.08 146.801C327.898 146.927 327.684 146.998 327.463 147.007Z" fill="#0F4FE1"/>
<path d="M304.037 174.531C303.809 174.53 303.587 174.461 303.398 174.333C303.21 174.205 303.064 174.023 302.979 173.812C302.92 173.673 302.891 173.524 302.892 173.374C302.893 173.224 302.924 173.075 302.985 172.938C303.045 172.8 303.134 172.676 303.244 172.574C303.354 172.472 303.484 172.393 303.625 172.343C310.044 169.875 313.907 164.823 313.907 158.816C313.951 158.226 313.867 157.633 313.661 157.079C313.455 156.524 313.132 156.021 312.714 155.603C312.295 155.184 311.792 154.861 311.237 154.655C310.683 154.449 310.09 154.366 309.5 154.409C306.769 154.409 305.447 155.878 305.094 159.33C304.93 160.944 304.147 162.432 302.909 163.481C301.671 164.53 300.075 165.058 298.455 164.955C297.585 164.968 296.721 164.799 295.919 164.459C295.117 164.12 294.394 163.617 293.797 162.982C293.2 162.348 292.742 161.597 292.452 160.776C292.161 159.955 292.045 159.082 292.11 158.213C292.192 153.672 294.066 149.348 297.324 146.183C300.582 143.019 304.959 141.272 309.5 141.323C314.157 141.323 318.625 143.166 321.927 146.449C325.229 149.732 327.098 154.188 327.125 158.845C327.022 162.124 326.33 165.357 325.084 168.392C324.964 168.663 324.745 168.876 324.471 168.989C324.197 169.101 323.89 169.103 323.615 168.994C323.479 168.938 323.355 168.855 323.25 168.751C323.146 168.646 323.063 168.522 323.007 168.385C322.951 168.249 322.923 168.102 322.924 167.955C322.925 167.807 322.955 167.661 323.013 167.525C324.141 164.764 324.772 161.826 324.878 158.845C324.859 154.782 323.229 150.893 320.347 148.029C317.464 145.166 313.564 143.562 309.5 143.57C307.534 143.531 305.58 143.88 303.749 144.598C301.918 145.315 300.247 146.387 298.831 147.751C297.415 149.115 296.282 150.746 295.496 152.549C294.711 154.351 294.289 156.291 294.255 158.258C294.195 158.829 294.256 159.407 294.435 159.953C294.615 160.499 294.907 161 295.294 161.425C295.682 161.85 296.154 162.187 296.681 162.416C297.209 162.645 297.778 162.759 298.353 162.752C298.882 162.805 299.416 162.752 299.924 162.597C300.433 162.442 300.905 162.188 301.315 161.849C301.725 161.51 302.063 161.094 302.311 160.624C302.559 160.153 302.711 159.639 302.759 159.109C303.288 154.542 305.535 152.221 309.456 152.221C310.345 152.176 311.233 152.319 312.063 152.641C312.893 152.962 313.645 153.455 314.272 154.087C314.898 154.719 315.384 155.476 315.699 156.308C316.013 157.141 316.148 158.03 316.095 158.918C316.095 165.88 311.689 171.726 304.345 174.531C304.243 174.543 304.139 174.543 304.037 174.531Z" fill="#0F4FE1"/>
<path d="M315.037 173.474C314.756 173.469 314.485 173.365 314.274 173.18C314.169 173.076 314.086 172.953 314.029 172.817C313.972 172.68 313.943 172.534 313.943 172.387C313.943 172.239 313.972 172.093 314.029 171.957C314.086 171.821 314.169 171.698 314.274 171.594C317.578 168.169 319.44 163.604 319.473 158.845C319.473 156.554 318.768 149.078 309.632 149.078C308.301 149.031 306.974 149.25 305.728 149.721C304.483 150.193 303.343 150.908 302.377 151.824C301.512 152.68 300.828 153.701 300.367 154.826C299.905 155.952 299.674 157.159 299.689 158.375C299.685 158.672 299.564 158.956 299.353 159.165C299.141 159.374 298.855 159.491 298.558 159.491C298.41 159.493 298.263 159.466 298.126 159.411C297.989 159.355 297.864 159.273 297.759 159.17C297.654 159.066 297.57 158.942 297.513 158.806C297.456 158.669 297.427 158.523 297.427 158.375C297.404 156.87 297.681 155.376 298.24 153.979C298.8 152.582 299.632 151.311 300.688 150.238C301.858 149.115 303.239 148.235 304.752 147.651C306.265 147.066 307.879 146.787 309.5 146.831C318.43 146.831 321.603 153.293 321.603 158.845C321.584 164.143 319.533 169.231 315.875 173.063C315.774 173.188 315.646 173.29 315.502 173.361C315.357 173.432 315.199 173.471 315.037 173.474Z" fill="#0F4FE1"/>
<path d="M298.719 169.743C297.954 169.741 297.189 169.697 296.428 169.611C296.281 169.594 296.14 169.549 296.01 169.478C295.881 169.407 295.767 169.311 295.675 169.195C295.583 169.08 295.515 168.948 295.474 168.806C295.433 168.665 295.42 168.516 295.437 168.37C295.453 168.223 295.498 168.081 295.569 167.952C295.641 167.823 295.737 167.709 295.852 167.617C295.967 167.525 296.099 167.456 296.241 167.415C296.383 167.374 296.531 167.362 296.678 167.378C300.335 167.789 303.214 167.143 305.255 165.439C306.196 164.598 306.957 163.575 307.492 162.431C308.028 161.288 308.326 160.048 308.369 158.786C308.376 158.637 308.414 158.492 308.479 158.358C308.544 158.224 308.636 158.105 308.748 158.007C308.861 157.91 308.992 157.836 309.134 157.791C309.276 157.745 309.425 157.729 309.573 157.743C309.869 157.766 310.145 157.902 310.342 158.124C310.54 158.346 310.643 158.636 310.631 158.933C310.569 160.504 310.188 162.046 309.511 163.465C308.835 164.884 307.876 166.15 306.695 167.187C304.427 168.966 301.598 169.873 298.719 169.743Z" fill="#0F4FE1"/>
<defs>
<filter id="filter0_dddd_1479_1285" x="0" y="0" width="365" height="226" filterUnits="userSpaceOnUse" color-interpolation-filters="sRGB">
<feFlood flood-opacity="0" result="BackgroundImageFix"/>
<feColorMatrix in="SourceAlpha" type="matrix" values="0 0 0 0 0 0 0 0 0 0 0 0 0 0 0 0 0 0 127 0" result="hardAlpha"/>
<feOffset/>
<feGaussianBlur stdDeviation="0.5"/>
<feColorMatrix type="matrix" values="0 0 0 0 0 0 0 0 0 0 0 0 0 0 0 0 0 0 0.04 0"/>
<feBlend mode="normal" in2="BackgroundImageFix" result="effect1_dropShadow_1479_1285"/>
<feColorMatrix in="SourceAlpha" type="matrix" values="0 0 0 0 0 0 0 0 0 0 0 0 0 0 0 0 0 0 127 0" result="hardAlpha"/>
<feOffset dy="4"/>
<feGaussianBlur stdDeviation="4"/>
<feColorMatrix type="matrix" values="0 0 0 0 0 0 0 0 0 0 0 0 0 0 0 0 0 0 0.04 0"/>
<feBlend mode="normal" in2="effect1_dropShadow_1479_1285" result="effect2_dropShadow_1479_1285"/>
<feColorMatrix in="SourceAlpha" type="matrix" values="0 0 0 0 0 0 0 0 0 0 0 0 0 0 0 0 0 0 127 0" result="hardAlpha"/>
<feOffset dy="16"/>
<feGaussianBlur stdDeviation="12"/>
<feColorMatrix type="matrix" values="0 0 0 0 0 0 0 0 0 0 0 0 0 0 0 0 0 0 0.04 0"/>
<feBlend mode="normal" in2="effect2_dropShadow_1479_1285" result="effect3_dropShadow_1479_1285"/>
<feColorMatrix in="SourceAlpha" type="matrix" values="0 0 0 0 0 0 0 0 0 0 0 0 0 0 0 0 0 0 127 0" result="hardAlpha"/>
<feOffset dy="24"/>
<feGaussianBlur stdDeviation="16"/>
<feColorMatrix type="matrix" values="0 0 0 0 0 0 0 0 0 0 0 0 0 0 0 0 0 0 0.04 0"/>
<feBlend mode="normal" in2="effect3_dropShadow_1479_1285" result="effect4_dropShadow_1479_1285"/>
<feBlend mode="normal" in="SourceGraphic" in2="effect4_dropShadow_1479_1285" result="shape"/>
</filter>
<filter id="filter1_dddd_1479_1285" x="230" y="79" width="150" height="159" filterUnits="userSpaceOnUse" color-interpolation-filters="sRGB">
<feFlood flood-opacity="0" result="BackgroundImageFix"/>
<feColorMatrix in="SourceAlpha" type="matrix" values="0 0 0 0 0 0 0 0 0 0 0 0 0 0 0 0 0 0 127 0" result="hardAlpha"/>
<feOffset/>
<feGaussianBlur stdDeviation="0.5"/>
<feColorMatrix type="matrix" values="0 0 0 0 0 0 0 0 0 0 0 0 0 0 0 0 0 0 0.04 0"/>
<feBlend mode="normal" in2="BackgroundImageFix" result="effect1_dropShadow_1479_1285"/>
<feColorMatrix in="SourceAlpha" type="matrix" values="0 0 0 0 0 0 0 0 0 0 0 0 0 0 0 0 0 0 127 0" result="hardAlpha"/>
<feOffset dy="2"/>
<feGaussianBlur stdDeviation="3"/>
<feColorMatrix type="matrix" values="0 0 0 0 0 0 0 0 0 0 0 0 0 0 0 0 0 0 0.04 0"/>
<feBlend mode="normal" in2="effect1_dropShadow_1479_1285" result="effect2_dropShadow_1479_1285"/>
<feColorMatrix in="SourceAlpha" type="matrix" values="0 0 0 0 0 0 0 0 0 0 0 0 0 0 0 0 0 0 127 0" result="hardAlpha"/>
<feOffset dy="16"/>
<feGaussianBlur stdDeviation="12"/>
<feColorMatrix type="matrix" values="0 0 0 0 0 0 0 0 0 0 0 0 0 0 0 0 0 0 0.06 0"/>
<feBlend mode="normal" in2="effect2_dropShadow_1479_1285" result="effect3_dropShadow_1479_1285"/>
<feColorMatrix in="SourceAlpha" type="matrix" values="0 0 0 0 0 0 0 0 0 0 0 0 0 0 0 0 0 0 127 0" result="hardAlpha"/>
<feOffset dx="-14" dy="-7"/>
<feGaussianBlur stdDeviation="10"/>
<feComposite in2="hardAlpha" operator="out"/>
<feColorMatrix type="matrix" values="0 0 0 0 0.9875 0 0 0 0 0.9875 0 0 0 0 0.9875 0 0 0 0.82 0"/>
<feBlend mode="normal" in2="effect3_dropShadow_1479_1285" result="effect4_dropShadow_1479_1285"/>
<feBlend mode="normal" in="SourceGraphic" in2="effect4_dropShadow_1479_1285" result="shape"/>
</filter>
</defs>
</svg>
