<svg width="337" height="234" fill="none" xmlns="http://www.w3.org/2000/svg"><g filter="url(#a)"><rect x="32" y="8" width="124" height="160" rx="30" fill="#fff"/></g><g filter="url(#b)"><rect x="181" y="8" width="124" height="160" rx="30" fill="#fff"/></g><g clip-path="url(#c)" fill="#0F4FE1"><path d="M226.917 82.687a1.06 1.06 0 0 0-.962-.615h-.003c-.414.001-.789.243-.962.62l-5.256 11.48a1.06 1.06 0 1 0 1.929.883l1.318-2.88h5.996l1.337 2.885a1.06 1.06 0 1 0 1.924-.892l-5.321-11.481Zm-2.965 7.368 2.009-4.387 2.033 4.387h-4.042ZM239.165 81.941h-5.127a1.06 1.06 0 0 0-1.06 1.06v11.613a1.06 1.06 0 1 0 2.121 0v-4.411h4.066a4.135 4.135 0 0 0 4.131-4.13 4.136 4.136 0 0 0-4.131-4.132Zm0 6.14h-4.066v-4.019h4.066c1.109 0 2.01.902 2.01 2.01 0 1.108-.901 2.01-2.01 2.01ZM245.172 81.941a1.06 1.06 0 0 0-1.061 1.06v11.613a1.06 1.06 0 0 0 2.121 0V83.002a1.06 1.06 0 0 0-1.06-1.06Z"/><path d="M272.094 64.585h-58.188A1.909 1.909 0 0 0 212 66.492v43.017c0 1.051.855 1.907 1.906 1.907h58.188a1.909 1.909 0 0 0 1.906-1.907V66.492a1.909 1.909 0 0 0-1.906-1.907Zm-14.255 34.717a5.357 5.357 0 0 1 7.033-2.849 5.371 5.371 0 0 1 2.849 7.033 5.359 5.359 0 0 1-4.942 3.274h-.001a5.329 5.329 0 0 1-2.09-.426 5.33 5.33 0 0 1-2.881-2.926 5.329 5.329 0 0 1 .032-4.106Zm6.513-29.287a2.02 2.02 0 1 1 0 4.042 2.02 2.02 0 0 1 0-4.041Zm-6.062 0a2.021 2.021 0 1 1 0 4.043 2.021 2.021 0 0 1 0-4.043Zm-6.062 0a2.02 2.02 0 1 1 0 4.041 2.02 2.02 0 0 1 0-4.04Zm-36.758 38.218V80.075h55.06V91.05c-.251-.36-.6-.656-1.033-.84l-3.363-1.423a2.41 2.41 0 0 0-3.162 1.28l-.204.483a10.594 10.594 0 0 0-4.361 1.01l-.396-.343a2.406 2.406 0 0 0-3.403.241l-2.393 2.76a2.405 2.405 0 0 0 .242 3.402l.394.342a10.453 10.453 0 0 0-.386 4.462l-.448.269a2.417 2.417 0 0 0-.823 3.311l1.439 2.39h-37.001a.162.162 0 0 1-.162-.162Z"/></g><path d="M114.813 207.764a1.25 1.25 0 0 0-1.049 1.423l1.685 11.123a1.25 1.25 0 1 0 2.472-.374l-1.498-9.887 9.887-1.498a1.25 1.25 0 1 0-.374-2.472l-11.123 1.685Zm108.422 1.427a1.25 1.25 0 0 0-1.044-1.426l-11.117-1.721a1.25 1.25 0 1 0-.383 2.471l9.883 1.529-1.53 9.882a1.25 1.25 0 1 0 2.471.383l1.72-11.118Zm-108.977.815c20.937 15.429 37.521 23.271 54.244 23.244 16.721-.027 33.303-7.92 54.236-23.241l-1.476-2.018c-20.823 15.241-36.863 22.734-52.764 22.759-15.899.025-31.937-7.414-52.756-22.756l-1.484 2.012Z" fill="#0F4FE1"/><path d="M88.257 89.214h-4.65c-6.41 0-11.624-5.214-11.624-11.607C71.983 71.214 77.197 66 83.607 66h27.897c.684 0 1.231.547 1.231 1.23 0 .684-.547 1.232-1.231 1.232H83.607c-5.06 0-9.162 4.12-9.162 9.162 0 5.043 4.12 9.162 9.162 9.162h4.65c.683 0 1.23.547 1.23 1.231 0 .65-.547 1.197-1.23 1.197ZM103.556 110H75.658c-.683 0-1.23-.547-1.23-1.231s.547-1.231 1.23-1.231h27.898c5.06 0 9.162-4.119 9.162-9.162 0-5.043-4.119-9.163-9.162-9.163h-4.65c-.684 0-1.23-.546-1.23-1.23 0-.684.546-1.231 1.23-1.231h4.65c6.41 0 11.624 5.214 11.624 11.607 0 6.393-5.214 11.641-11.624 11.641Z" fill="#0E4FDF"/><path d="M102.786 97.162h-25.64c-.548-1.965-2.343-3.435-4.496-3.435a4.654 4.654 0 0 0-4.65 4.65 4.655 4.655 0 0 0 4.65 4.649c2.136 0 3.948-1.453 4.495-3.436h25.641c.684 0 1.231-.547 1.231-1.23 0-.685-.564-1.198-1.231-1.198Zm-30.12 3.436a2.21 2.21 0 0 1-2.204-2.205 2.21 2.21 0 0 1 2.205-2.205 2.21 2.21 0 0 1 2.205 2.205 2.21 2.21 0 0 1-2.205 2.205ZM114.923 72.957c-2.136 0-3.948 1.453-4.495 3.436H84.786c-.683 0-1.23.547-1.23 1.23 0 .684.547 1.231 1.23 1.231h25.642c.547 1.966 2.341 3.436 4.495 3.436a4.655 4.655 0 0 0 4.65-4.65c0-2.563-2.086-4.683-4.65-4.683Zm0 6.855a2.21 2.21 0 0 1-2.205-2.205 2.21 2.21 0 0 1 2.205-2.206 2.21 2.21 0 0 1 2.205 2.206 2.21 2.21 0 0 1-2.205 2.205Z" fill="#000"/><defs><filter id="a" x="0" y="0" width="188" height="224" filterUnits="userSpaceOnUse" color-interpolation-filters="sRGB"><feFlood flood-opacity="0" result="BackgroundImageFix"/><feColorMatrix in="SourceAlpha" values="0 0 0 0 0 0 0 0 0 0 0 0 0 0 0 0 0 0 127 0" result="hardAlpha"/><feOffset/><feGaussianBlur stdDeviation=".5"/><feColorMatrix values="0 0 0 0 0 0 0 0 0 0 0 0 0 0 0 0 0 0 0.04 0"/><feBlend in2="BackgroundImageFix" result="effect1_dropShadow_102_21"/><feColorMatrix in="SourceAlpha" values="0 0 0 0 0 0 0 0 0 0 0 0 0 0 0 0 0 0 127 0" result="hardAlpha"/><feOffset dy="4"/><feGaussianBlur stdDeviation="4"/><feColorMatrix values="0 0 0 0 0 0 0 0 0 0 0 0 0 0 0 0 0 0 0.04 0"/><feBlend in2="effect1_dropShadow_102_21" result="effect2_dropShadow_102_21"/><feColorMatrix in="SourceAlpha" values="0 0 0 0 0 0 0 0 0 0 0 0 0 0 0 0 0 0 127 0" result="hardAlpha"/><feOffset dy="16"/><feGaussianBlur stdDeviation="12"/><feColorMatrix values="0 0 0 0 0 0 0 0 0 0 0 0 0 0 0 0 0 0 0.04 0"/><feBlend in2="effect2_dropShadow_102_21" result="effect3_dropShadow_102_21"/><feColorMatrix in="SourceAlpha" values="0 0 0 0 0 0 0 0 0 0 0 0 0 0 0 0 0 0 127 0" result="hardAlpha"/><feOffset dy="24"/><feGaussianBlur stdDeviation="16"/><feColorMatrix values="0 0 0 0 0 0 0 0 0 0 0 0 0 0 0 0 0 0 0.04 0"/><feBlend in2="effect3_dropShadow_102_21" result="effect4_dropShadow_102_21"/><feBlend in="SourceGraphic" in2="effect4_dropShadow_102_21" result="shape"/></filter><filter id="b" x="149" y="0" width="188" height="224" filterUnits="userSpaceOnUse" color-interpolation-filters="sRGB"><feFlood flood-opacity="0" result="BackgroundImageFix"/><feColorMatrix in="SourceAlpha" values="0 0 0 0 0 0 0 0 0 0 0 0 0 0 0 0 0 0 127 0" result="hardAlpha"/><feOffset/><feGaussianBlur stdDeviation=".5"/><feColorMatrix values="0 0 0 0 0 0 0 0 0 0 0 0 0 0 0 0 0 0 0.04 0"/><feBlend in2="BackgroundImageFix" result="effect1_dropShadow_102_21"/><feColorMatrix in="SourceAlpha" values="0 0 0 0 0 0 0 0 0 0 0 0 0 0 0 0 0 0 127 0" result="hardAlpha"/><feOffset dy="4"/><feGaussianBlur stdDeviation="4"/><feColorMatrix values="0 0 0 0 0 0 0 0 0 0 0 0 0 0 0 0 0 0 0.04 0"/><feBlend in2="effect1_dropShadow_102_21" result="effect2_dropShadow_102_21"/><feColorMatrix in="SourceAlpha" values="0 0 0 0 0 0 0 0 0 0 0 0 0 0 0 0 0 0 127 0" result="hardAlpha"/><feOffset dy="16"/><feGaussianBlur stdDeviation="12"/><feColorMatrix values="0 0 0 0 0 0 0 0 0 0 0 0 0 0 0 0 0 0 0.04 0"/><feBlend in2="effect2_dropShadow_102_21" result="effect3_dropShadow_102_21"/><feColorMatrix in="SourceAlpha" values="0 0 0 0 0 0 0 0 0 0 0 0 0 0 0 0 0 0 127 0" result="hardAlpha"/><feOffset dy="24"/><feGaussianBlur stdDeviation="16"/><feColorMatrix values="0 0 0 0 0 0 0 0 0 0 0 0 0 0 0 0 0 0 0.04 0"/><feBlend in2="effect3_dropShadow_102_21" result="effect4_dropShadow_102_21"/><feBlend in="SourceGraphic" in2="effect4_dropShadow_102_21" result="shape"/></filter><clipPath id="c"><path fill="#fff" transform="translate(212 57)" d="M0 0h62v62H0z"/></clipPath></defs></svg>
